<?xml version="1.0" encoding="UTF-8" standalone="no"?>
<svg
   xmlns:dc="http://purl.org/dc/elements/1.1/"
   xmlns:cc="http://creativecommons.org/ns#"
   xmlns:rdf="http://www.w3.org/1999/02/22-rdf-syntax-ns#"
   xmlns:svg="http://www.w3.org/2000/svg"
   xmlns="http://www.w3.org/2000/svg"
   xmlns:sodipodi="http://sodipodi.sourceforge.net/DTD/sodipodi-0.dtd"
   xmlns:inkscape="http://www.inkscape.org/namespaces/inkscape"
   inkscape:version="1.0 (4035a4fb49, 2020-05-01)"
   sodipodi:docname="eelroam.svg"
   viewBox="0 0 701.71997 254.26666"
   height="254.26666"
   width="701.71997"
   xml:space="preserve"
   id="svg10"
   version="1.1"><metadata
     id="metadata16"><rdf:RDF><cc:Work
         rdf:about=""><dc:format>image/svg+xml</dc:format><dc:type
           rdf:resource="http://purl.org/dc/dcmitype/StillImage" /><dc:title></dc:title></cc:Work></rdf:RDF></metadata><defs
     id="defs14" /><sodipodi:namedview
     inkscape:current-layer="g18"
     inkscape:window-maximized="1"
     inkscape:window-y="18"
     inkscape:window-x="0"
     inkscape:cy="158.29108"
     inkscape:cx="386.67128"
     inkscape:zoom="1.5718127"
     showgrid="false"
     id="namedview12"
     inkscape:window-height="1041"
     inkscape:window-width="1916"
     inkscape:pageshadow="2"
     inkscape:pageopacity="0"
     guidetolerance="10"
     gridtolerance="10"
     objecttolerance="10"
     borderopacity="1"
     bordercolor="#666666"
     pagecolor="#ffffff" /><g
     transform="matrix(1.3333333,0,0,-1.3333333,0,254.26667)"
     inkscape:label="ink_ext_XXXXXX"
     inkscape:groupmode="layer"
     id="g18"><path
       d="m 140.104,67.684 c -20.184,0 -40.3681,4.4781 -55.7435,13.4301 -23.0871,13.432 -28.8582,33.1409 -17.3191,49.7119 l 5.4524,6.028 32.6942,-1.383 0.45,-0.003 -5.9954,-4.723 C 87.4691,118.908 89.4957,102.801 105.72,92.384 c 9.275,-5.9551 21.438,-8.9352 33.601,-8.9352 12.163,0 24.327,2.9801 33.596,8.9352 16.223,10.417 18.255,26.524 6.085,38.361 l -5.731,4.508 15.383,0.218 19.563,0.828 4.949,-5.473 c 11.54,-16.571 5.768,-36.2799 -17.308,-49.7119 -15.386,-8.952 -35.57,-13.4301 -55.754,-13.4301 v 0"
       style="fill:#bed8e7;fill-opacity:1;fill-rule:evenodd;stroke:none;stroke-width:0.1"
       id="path22" /><path
       d="m 273,137.546 -1.678,2.738 -3.027,-0.309 -27.767,-1.982 3.482,-5.639 c 10.966,-20.993 1.826,-44.6411 -27.419,-61.1989 -8.01,-4.536 -16.971,-8.202 -26.508,-11.0281 h 49.913 c 35.746,21.207 46.768,50.951 33.004,77.419"
       style="fill:#bed8e7;fill-opacity:1;fill-rule:evenodd;stroke:none;stroke-width:0.1"
       id="path24" /><path
       d="M 38.7395,60.1148 H 88.9684 C 79.4293,62.9422 70.4746,66.6191 62.4633,71.1551 30.5527,89.2172 22.582,115.718 38.5344,138.006 l 0.8058,0.989 -13.7957,0.98 -17.24802,1.752 -2.55937,-4.181 C -8.02969,111.075 2.98242,81.3219 38.7395,60.1148"
       style="fill:#bed8e7;fill-opacity:1;fill-rule:evenodd;stroke:none;stroke-width:0.1"
       id="path26" /><path
       d="m 278.701,60.127 h 36.12 c 27.727,26.0089 33.962,56.979 18.652,85.21 l -1.264,1.979 -26.398,-3.532 -5.04,-0.51 2.868,-4.367 c 14.64,-26.392 6.311,-55.6332 -24.938,-78.78"
       style="fill:#bed8e7;fill-opacity:1;fill-rule:evenodd;stroke:none;stroke-width:0.1"
       id="path28" /><path
       d="m 347.886,60.127 h 33.863 c 24.032,29.7589 27.52,63.101 10.394,93.895 l -2.155,3.273 -14.82,-3.074 -15.256,-2.57 2.307,-3.481 C 378.468,119.177 373.67,87.5988 347.886,60.127"
       style="fill:#bed8e7;fill-opacity:1;fill-rule:evenodd;stroke:none;stroke-width:0.1"
       id="path30" /><path
       d="m 414.571,60.127 h 34.226 c 20.901,33.0503 22.186,68.898 3.791,102.282 l -5.883,9.024 -11.101,-3.393 -18.295,-4.605 4.185,-6.42 c 17.485,-31.691 15.157,-65.8513 -6.923,-96.888"
       style="fill:#bed8e7;fill-opacity:1;fill-rule:evenodd;stroke:none;stroke-width:0.1"
       id="path32" /><path
       d="m 480.877,60.1148 h 31.555 C 534.65,102.82 530.154,148.704 498.889,190.116 l -0.475,0.581 -12.935,-5.904 -13,-4.809 9.324,-14.155 C 501.008,131.37 500.684,94.4965 480.877,60.1148"
       style="fill:#bed8e7;fill-opacity:1;fill-rule:evenodd;stroke:none;stroke-width:0.1"
       id="path34" /><path
       d="m 41.8551,31.2172 c 0,4.7887 -1.875,8.4258 -8.4375,8.4258 -6.0938,0 -8.3199,-3.9258 -8.3199,-8.4258 z M 65.2922,17.332 C 61.6594,5.45703 48.7691,0 34.5895,0 25.8004,0 17.2461,1.53086 10.4492,6.41406 4.0043,11.1082 0.60589996,17.8109 0.72269996,24.8012 0.60589996,31.4082 3.7699,38.5898 9.3945,43.2809 c 6.0938,5.1722 15.2344,7.5671 23.7887,7.5671 19.9219,0 32.109,-10.5351 32.109,-26.621 V 21.641 H 25.0977 c 0,-5.268 2.1093,-9.0961 9.1402,-9.0961 5.2734,0 8.2031,1.7231 9.1406,5.936 L 65.2922,17.332"
       style="fill:#171717;fill-opacity:1;fill-rule:nonzero;stroke:none;stroke-width:0.1"
       id="path36" /><path
       d="m 262.604,39.834 c 1.992,6.7992 6.327,11.5879 15.585,11.014 l 3.163,-0.1921 V 33.5141 c -1.405,0.289 -2.928,0.48 -4.452,0.48 -3.749,0 -7.616,-0.5761 -9.49,-3.3531 -1.641,-2.393 -1.641,-5.5531 -1.641,-8.4262 V 0.957031 H 242.566 V 49.8891 H 262.37 V 39.834 h 0.234"
       style="fill:#2b6691;fill-opacity:1;fill-rule:evenodd;stroke:none;stroke-width:0.1"
       id="path42" /><path
       d="m 309.592,25.6621 c 0,-13.1172 3.867,-14.0762 8.086,-14.0762 4.218,0 8.086,0.959 8.086,14.0762 0,4.6918 -0.118,13.2149 -8.086,13.2149 -7.969,0 -8.086,-8.5231 -8.086,-13.2149 z m 41.015,-0.6699 C 350.607,10.1512 335.959,0 317.678,0 299.396,0 284.75,10.1512 284.75,24.9922 c 0,15.7047 14.18,25.8558 32.928,25.8558 18.75,0 32.929,-10.1511 32.929,-25.8558"
       style="fill:#2b6691;fill-opacity:1;fill-rule:evenodd;stroke:none;stroke-width:0.1"
       id="path44" /><path
       d="m 394.316,23.8422 c -5.625,-0.4781 -15,-1.9141 -15,-7.8524 0,-3.1597 2.461,-4.5 6.094,-4.5 8.789,0 8.906,6.034 8.906,11.3954 z M 396.309,0.957031 C 395.721,3.1582 395.486,5.45703 395.486,7.75586 390.801,2.10586 384.121,0 375.918,0 c -11.133,0 -20.859,4.97891 -20.859,14.7461 0,7.7559 7.382,12.9258 15.703,15.034 7.617,1.916 15.703,2.6808 23.554,3.064 v 0.3829 c 0,4.4062 -1.406,6.1289 -7.031,6.1289 -4.57,0 -8.437,-1.3399 -9.14,-5.4571 l -21.329,1.6274 c 3.516,12.1597 17.696,15.3218 31.172,15.3218 7.032,0 16.055,-0.7679 21.912,-4.2148 7.852,-4.5 6.916,-10.8203 6.916,-17.8113 V 11.682 c 0,-3.63903 0.116,-7.27692 1.873,-10.724969 h -22.38"
       style="fill:#2b6691;fill-opacity:1;fill-rule:evenodd;stroke:none;stroke-width:0.1"
       id="path46" /><path
       d="m 446.93,49.8891 v -6.6082 h 0.234 c 3.281,4.9812 9.258,7.5671 16.289,7.5671 7.383,0 13.24,-2.2992 16.875,-7.5671 4.102,5.4589 10.078,7.5671 17.928,7.5671 5.039,0 10.43,-1.2441 13.947,-4.2148 4.336,-3.6391 4.336,-8.4281 4.336,-13.598 V 0.957031 H 493.803 V 30.3539 c 0,3.1602 0.468,6.7051 -4.92,6.7051 -6.563,0 -6.328,-4.9809 -6.328,-8.9059 V 0.957031 H 459.82 V 30.3539 c 0,3.0641 -0.234,6.9922 -5.273,6.9922 -5.508,0 -5.977,-3.352 -5.977,-6.9922 V 0.957031 H 425.838 V 49.8891 h 21.092"
       style="fill:#2b6691;fill-opacity:1;fill-rule:evenodd;stroke:none;stroke-width:0.1"
       id="path48" /><path
       id="path36-3"
       style="fill:#171717;fill-opacity:1;fill-rule:nonzero;stroke:none;stroke-width:0.0999997"
       d="m 110.30955,31.403724 c 0,4.7887 -1.875,8.4258 -8.4375,8.4258 -6.0938,0 -8.3199,-3.9258 -8.3199,-8.4258 z m 23.4371,-13.8852 c -3.6328,-11.8749703 -16.5231,-17.33200036 -30.7027,-17.33200036 -8.7891,0 -17.3434,1.53086006 -24.140303,6.41406006 -6.4449,4.6941403 -9.8433,11.3968403 -9.7265,18.3871403 -0.1168,6.607 3.0472,13.7886 8.6718,18.4797 6.093803,5.1722 15.234403,7.5671 23.788703,7.5671 19.9219,0 32.109,-10.5351 32.109,-26.621 v -2.586 h -40.1945 c 0,-5.268 2.1093,-9.0961 9.1402,-9.0961 5.2734,0 8.2031,1.7231 9.1406,5.936 l 21.9137,-1.1489" /><g
       transform="matrix(0.0864277,0,0,-0.0864277,116.69342,136.21707)"
       id="g323"><path
         style="fill:#e6f6ff"
         d="m 430.931,179.079 c 0,-1.659 -0.032,-3.308 -0.096,-4.956 C 428.293,105.116 372.805,49.628 303.798,47.086 302.149,47.022 300.501,46.99 298.842,46.99 H 136.238 c 0,-20.081 16.273,-36.354 36.354,-36.354 h 126.25 c 46.522,0 88.63,18.858 119.113,49.33 30.472,30.483 49.33,72.591 49.33,119.113 0,93.034 -75.41,168.443 -168.443,168.443 H 177.123 c -5.914,0 -11.264,2.393 -15.146,6.265 -3.872,3.882 -6.265,9.232 -6.265,15.146 0,11.827 9.583,21.41 21.41,21.41 h 139.566 c 10.04,0 19.124,4.074 25.707,10.647 6.584,6.573 10.647,15.667 10.647,25.707 H 177.123 c -15.954,0 -30.387,-6.467 -40.842,-16.922 -10.126,-10.126 -16.518,-23.995 -16.901,-39.353 l -0.021,-1.489 c 0,-0.447 0,-0.883 0.021,-1.319 0.383,-15.316 6.754,-29.153 16.858,-39.247 10.423,-10.423 24.825,-16.869 40.736,-16.869 h 121.708 c 71.379,0 129.558,-56.563 132.153,-127.314 z"
         id="path256" /><path
         style="fill:#97c2f7"
         d="m 430.931,179.079 -0.096,5.105 c -1.308,34.45 -15.805,65.508 -38.588,88.301 -23.91,23.899 -56.924,38.683 -93.406,38.683 H 177.123 c -31.451,0 -57.052,25.154 -57.743,56.446 -0.021,0.436 -0.021,0.872 -0.021,1.319 l 0.021,1.489 c 0.691,31.217 26.207,56.297 57.594,56.297 h 179.313 c 20.613,0 39.279,8.349 52.787,21.857 13.508,13.508 21.857,32.174 21.857,52.787 H 176.974 c -36.524,0 -69.592,-14.805 -93.523,-38.737 -23.931,-23.931 -38.737,-56.999 -38.737,-93.523 0,-73.038 59.211,-132.249 132.259,-132.249 h 121.708 c 15.901,0 30.302,-6.445 40.736,-16.869 10.423,-10.434 16.869,-24.835 16.869,-40.747 0,-31.812 -25.792,-57.605 -57.605,-57.605 H 61.264 c -9.136,0 -16.55,-7.413 -16.55,-16.55 0,-32.089 26.005,-58.094 58.094,-58.094 h 33.429 162.604 c 1.659,0 3.308,0.032 4.956,0.096 34.482,1.308 65.582,15.826 88.396,38.641 22.814,22.814 37.333,53.914 38.641,88.396 0.065,1.65 0.097,3.298 0.097,4.957 z"
         id="path258" /><path
         d="M 298.683,226.218 H 176.974 c -78.793,0 -142.896,64.098 -142.896,142.885 0,38.171 14.864,74.055 41.852,101.044 C 102.919,497.136 138.804,512 176.974,512 h 253.957 c 5.874,0 10.636,-4.763 10.636,-10.636 0,-22.787 -8.868,-44.206 -24.972,-60.309 -14.625,-14.624 -33.634,-23.256 -54.068,-24.724 -1.925,-8.601 -6.233,-16.495 -12.614,-22.868 -8.884,-8.871 -20.683,-13.757 -33.223,-13.757 H 177.123 c -5.94,0 -10.774,-4.833 -10.774,-10.774 0,-2.88 1.122,-5.591 3.14,-7.614 2.042,-2.038 4.754,-3.16 7.635,-3.16 h 121.719 c 98.745,0 179.079,-80.334 179.079,-179.079 0,-47.83 -18.625,-92.802 -52.446,-126.635 C 391.644,18.626 346.671,0 298.842,0 H 172.592 C 150.34,0 131.664,15.552 126.83,36.355 h -24.02 c -37.898,0 -68.73,30.832 -68.73,68.73 0,14.99 12.195,27.186 27.186,27.186 h 237.418 c 25.899,0 46.969,21.071 46.969,46.969 0,12.548 -4.886,24.349 -13.75,33.222 -8.881,8.871 -20.678,13.756 -33.22,13.756 z m 0,-115.22 H 61.265 c -3.261,0 -5.914,-2.653 -5.914,-5.914 0,-0.774 0.021,-1.543 0.058,-2.308 h 38.677 c 5.874,0 10.636,-4.763 10.636,-10.636 0,-5.873 -4.762,-10.636 -10.636,-10.636 H 61.65 C 69.847,67.252 85.221,57.626 102.809,57.626 h 33.429 83.998 c 5.874,0 10.636,-4.763 10.636,-10.636 0,-5.873 -4.762,-10.636 -10.636,-10.636 h -71.06 c 4.053,-8.889 13.025,-15.082 23.415,-15.082 h 126.25 c 42.149,0 81.781,16.414 111.591,46.215 29.803,29.812 46.216,69.443 46.216,111.593 0,87.016 -70.793,157.807 -157.807,157.807 h -121.72 c -8.552,0 -16.599,3.328 -22.676,9.39 -6.042,6.058 -9.37,14.104 -9.37,22.657 0,17.67 14.376,32.046 32.046,32.046 h 139.566 c 6.863,0 13.324,2.677 18.192,7.539 2.22,2.216 3.983,4.767 5.244,7.544 h -163 c -5.9,0 -11.629,-1.091 -16.975,-3.154 -10.856,-4.228 -19.833,-12.39 -25.089,-22.716 -0.031,-0.06 -0.063,-0.119 -0.093,-0.179 -0.262,-0.519 -0.507,-1.048 -0.75,-1.577 -0.086,-0.188 -0.175,-0.374 -0.258,-0.564 -0.173,-0.394 -0.335,-0.793 -0.498,-1.192 -0.135,-0.333 -0.274,-0.664 -0.402,-0.999 -0.096,-0.25 -0.182,-0.504 -0.273,-0.755 -0.175,-0.486 -0.351,-0.972 -0.509,-1.464 -0.031,-0.093 -0.056,-0.188 -0.086,-0.282 -1.292,-4.085 -2.027,-8.363 -2.162,-12.738 -0.002,-0.083 -0.01,-0.165 -0.012,-0.249 l -0.019,-1.346 c 0,-0.24 -0.003,-0.477 0.009,-0.713 0.003,-0.08 0.006,-0.16 0.009,-0.239 l 0.001,-0.014 c 0.302,-12.076 5.183,-23.438 13.746,-31.992 8.869,-8.869 20.666,-13.755 33.215,-13.755 h 121.708 c 37.235,0 72.486,-14.246 99.26,-40.112 26.66,-25.755 42.107,-60.287 43.512,-97.254 0.002,-0.06 0.006,-0.119 0.008,-0.18 v -0.01 -0.005 -0.002 c 0.002,-0.063 0.004,-0.124 0.005,-0.186 l 0.096,-5.106 c 0.001,-0.067 0.002,-0.134 0.002,-0.2 0,-1.779 -0.035,-3.585 -0.103,-5.348 v -0.011 0 c 0,-0.011 -10e-4,-0.022 -0.002,-0.033 -1.339,-36.051 -16.147,-69.974 -41.7,-95.527 C 374.29,52.69 340.5,37.899 304.6,36.481 c -0.133,-0.005 -0.266,-0.015 -0.399,-0.02 -0.005,0 -0.011,0 -0.016,0 -1.752,-0.068 -3.549,-0.103 -5.344,-0.103 h -15.986 c -5.874,0 -10.636,4.763 -10.636,10.636 0,5.873 4.762,10.636 10.636,10.636 h 15.986 c 1.523,0 3.046,0.03 4.55,0.088 10e-4,0 0.002,0 0.003,0 7.503,0.284 14.898,1.259 22.107,2.881 0.197,0.045 0.396,0.086 0.592,0.132 0.541,0.124 1.08,0.258 1.619,0.391 0.438,0.107 0.878,0.212 1.314,0.324 0.296,0.076 0.59,0.157 0.885,0.236 0.689,0.183 1.378,0.367 2.063,0.563 0.038,0.011 0.077,0.022 0.115,0.033 41.061,11.761 73.42,44.76 84.274,86.194 0.024,0.096 0.051,0.19 0.077,0.286 0.167,0.643 0.322,1.29 0.479,1.938 0.081,0.334 0.165,0.667 0.241,1.002 0.096,0.411 0.183,0.825 0.274,1.238 0.123,0.561 0.25,1.121 0.366,1.684 0.039,0.188 0.073,0.378 0.112,0.566 1.23,6.127 1.99,12.379 2.262,18.71 0.009,0.214 0.023,0.427 0.032,0.641 0.057,1.478 0.087,2.974 0.088,4.449 l -0.093,4.881 c -0.004,0.118 -0.013,0.235 -0.017,0.353 -1.266,30.462 -13.846,59.125 -35.457,80.747 -22.948,22.937 -53.45,35.569 -85.887,35.569 H 177.123 c -17.995,0 -34.987,6.935 -47.847,19.524 -12.812,12.544 -20.099,29.301 -20.527,47.198 -10e-4,0.02 0,0.041 -10e-4,0.062 0,0.011 -0.001,0.022 -0.002,0.033 0,0.009 0.001,0.017 0.001,0.026 -0.019,0.514 -0.026,1.031 -0.026,1.558 0,0.051 0,0.102 10e-4,0.152 l 0.021,1.489 c 0,0.038 0.001,0.076 0.002,0.113 0.003,0.11 0.013,0.218 0.016,0.328 0.485,17.772 7.739,34.403 20.462,46.861 12.829,12.561 29.786,19.478 47.75,19.478 h 179.313 c 17.104,0 33.179,6.656 45.266,18.742 9.543,9.543 15.7,21.571 17.87,34.631 H 176.975 c -32.488,0 -63.031,-12.652 -86.002,-35.622 -22.971,-22.971 -35.621,-53.513 -35.621,-86.001 0,-67.057 54.56,-121.613 121.623,-121.613 h 121.708 c 18.22,0 35.356,-7.096 48.261,-19.988 12.885,-12.897 19.98,-30.037 19.98,-48.263 0,-37.632 -30.613,-68.246 -68.241,-68.246 z"
         id="path260" /><path
         d="m 251.746,36.355 h -3.191 c -5.874,0 -10.636,4.763 -10.636,10.636 0,5.873 4.762,10.636 10.636,10.636 h 3.191 c 5.874,0 10.636,-4.763 10.636,-10.636 0,-5.873 -4.762,-10.636 -10.636,-10.636 z"
         id="path262" /><path
         d="m 159.936,65.986 c -5.874,0 -10.636,4.763 -10.636,10.636 0,2.264 -1.842,4.106 -4.106,4.106 -2.263,0 -4.106,-1.841 -4.106,-4.106 0,-5.873 -4.762,-10.636 -10.636,-10.636 -5.874,0 -10.636,4.763 -10.636,10.636 0,13.993 11.385,25.378 25.378,25.378 13.994,0 25.378,-11.385 25.378,-25.378 0,-5.873 -4.762,-10.636 -10.636,-10.636 z"
         id="path264" /><g
         id="g266">
</g><g
         id="g268">
</g><g
         id="g270">
</g><g
         id="g272">
</g><g
         id="g274">
</g><g
         id="g276">
</g><g
         id="g278">
</g><g
         id="g280">
</g><g
         id="g282">
</g><g
         id="g284">
</g><g
         id="g286">
</g><g
         id="g288">
</g><g
         id="g290">
</g><g
         id="g292">
</g><g
         id="g294">
</g></g><text
       transform="scale(1.3480233,-0.74182695)"
       id="text327"
       y="-0.48015061"
       x="150.58743"
       style="font-size:102.263px;line-height:1.25;font-family:'Franklin Gothic Demi';-inkscape-font-specification:'Franklin Gothic Demi';letter-spacing:0px;word-spacing:0px;stroke-width:3.1957"
       xml:space="preserve"><tspan
         style="stroke-width:3.1957"
         y="-0.48015061"
         x="150.58743"
         id="tspan325"
         sodipodi:role="line">l</tspan></text><path
       d="m 177.07317,31.448137 c 0,4.7887 -1.875,8.4258 -8.4375,8.4258 -6.0938,0 -8.3199,-3.9258 -8.3199,-8.4258 z m 23.4371,-13.885199 c -3.6328,-11.8749705 -16.5231,-17.33200049 -30.7027,-17.33200049 -8.7891,0 -17.3434,1.53085999 -24.1403,6.41405999 -6.4449,4.6941405 -9.8433,11.3968405 -9.7265,18.3871395 -0.1168,6.607 3.0472,13.7886 8.6718,18.479701 6.0938,5.1722 15.2344,7.5671 23.7887,7.5671 19.9219,0 32.109,-10.535101 32.109,-26.621001 v -2.586 h -40.1945 c 0,-5.267999 2.1093,-9.096099 9.1402,-9.096099 5.2734,0 8.2031,1.7231 9.1406,5.936 l 21.9137,-1.1489"
       style="fill:#171717;fill-opacity:1;fill-rule:nonzero;stroke:none;stroke-width:0.0999997"
       id="path36-3-6" /></g></svg>
