<?xml version="1.0" encoding="UTF-8" standalone="no"?>
<svg
   xmlns:dc="http://purl.org/dc/elements/1.1/"
   xmlns:cc="http://creativecommons.org/ns#"
   xmlns:rdf="http://www.w3.org/1999/02/22-rdf-syntax-ns#"
   xmlns:svg="http://www.w3.org/2000/svg"
   xmlns="http://www.w3.org/2000/svg"
   xmlns:sodipodi="http://sodipodi.sourceforge.net/DTD/sodipodi-0.dtd"
   xmlns:inkscape="http://www.inkscape.org/namespaces/inkscape"
   width="57.393021mm"
   height="81.05574mm"
   viewBox="0 0 57.393021 81.05574"
   version="1.1"
   id="svg8"
   inkscape:version="1.0 (4035a4fb49, 2020-05-01)"
   sodipodi:docname="logo-error.svg">
  <defs
     id="defs2" />
  <sodipodi:namedview
     id="base"
     pagecolor="#ffffff"
     bordercolor="#666666"
     borderopacity="1.0"
     inkscape:pageopacity="0.0"
     inkscape:pageshadow="2"
     inkscape:zoom="1.1712814"
     inkscape:cx="119.58544"
     inkscape:cy="31.735484"
     inkscape:document-units="mm"
     inkscape:current-layer="layer1"
     inkscape:document-rotation="0"
     showgrid="false"
     fit-margin-top="2"
     fit-margin-right="2"
     fit-margin-bottom="2"
     fit-margin-left="2"
     inkscape:window-width="1916"
     inkscape:window-height="1041"
     inkscape:window-x="0"
     inkscape:window-y="18"
     inkscape:window-maximized="1" />
  <metadata
     id="metadata5">
    <rdf:RDF>
      <cc:Work
         rdf:about="">
        <dc:format>image/svg+xml</dc:format>
        <dc:type
           rdf:resource="http://purl.org/dc/dcmitype/StillImage" />
        <dc:title></dc:title>
      </cc:Work>
    </rdf:RDF>
  </metadata>
  <g
     inkscape:label="Layer 1"
     inkscape:groupmode="layer"
     id="layer1"
     transform="translate(-76.303489,-42.685214)">
    <g
       id="g571">
      <path
         id="path202"
         d="m 126.04364,66.227848 c 0,-0.199572 -0.004,-0.397942 -0.0115,-0.596191 -0.30579,-8.301322 -6.98082,-14.976352 -15.28214,-15.282147 -0.19837,-0.0077 -0.39662,-0.01155 -0.59619,-0.01155 H 90.593012 c 0,-2.415681 1.95759,-4.373271 4.373271,-4.373271 h 15.187477 c 5.59644,0 10.6619,2.268557 14.32891,5.934242 3.66569,3.667008 5.93424,8.732467 5.93424,14.328915 0,11.191695 -9.07158,20.263157 -20.26315,20.263157 H 95.511348 c -0.711436,0 -1.355024,0.287871 -1.822016,0.75366 -0.465789,0.466992 -0.75366,1.11058 -0.75366,1.822016 0,1.42275 1.152805,2.575555 2.575555,2.575555 h 16.789343 c 1.20778,0 2.30056,0.490089 3.09247,1.2808 0.79204,0.790711 1.2808,1.88469 1.2808,3.09247 H 95.511348 c -1.919216,0 -3.65546,-0.777959 -4.913163,-2.035663 -1.218126,-1.218125 -1.987063,-2.886522 -2.033137,-4.73404 l -0.0025,-0.179122 c 0,-0.05377 0,-0.106222 0.0025,-0.158672 0.04607,-1.842466 0.812485,-3.507013 2.027964,-4.721289 1.253854,-1.253854 2.986369,-2.029287 4.900411,-2.029287 h 14.641087 c 8.58667,0 15.58541,-6.804349 15.89758,-15.31547 z"
         style="fill:#ffd5d5;stroke-width:0.120297" />
      <path
         id="path204"
         d="m 126.04364,66.227848 -0.0115,0.614115 c -0.15734,4.144226 -1.90129,7.880405 -4.64201,10.62233 -2.8763,2.874974 -6.84778,4.653442 -11.23644,4.653442 H 95.511348 c -3.783456,0 -6.863175,3.025946 -6.9463,6.790274 -0.0025,0.05245 -0.0025,0.104899 -0.0025,0.158672 l 0.0025,0.179122 c 0.08312,3.755305 3.152619,6.77235 6.928375,6.77235 h 21.570787 c 2.47968,0 4.72514,1.004358 6.35011,2.629327 1.62496,1.62497 2.62932,3.87043 2.62932,6.35011 H 95.493423 c -4.393721,0 -8.371696,-1.781 -11.250519,-4.65994 -2.878823,-2.878823 -4.659938,-6.856798 -4.659938,-11.250519 0,-8.786239 7.122895,-15.909134 15.910337,-15.909134 h 14.641087 c 1.91284,0 3.64523,-0.775313 4.90041,-2.029287 1.25385,-1.255177 2.02929,-2.987572 2.02929,-4.901735 0,-3.826882 -3.1027,-6.929698 -6.9297,-6.929698 H 81.573878 c -1.099031,0 -1.990912,-0.89176 -1.990912,-1.990912 0,-3.860205 3.128319,-6.988524 6.988523,-6.988524 h 4.021403 19.560748 c 0.19957,0 0.39794,0.0038 0.59619,0.01155 4.14807,0.157348 7.8893,1.903817 10.63375,4.648389 2.74446,2.744452 4.49105,6.485683 4.64839,10.633758 0.008,0.19849 0.0117,0.396739 0.0117,0.596311 z"
         style="fill:#ff2a2a;stroke-width:0.120297" />
      <path
         id="path206"
         d="M 110.13463,71.89852 H 95.493423 c -9.478547,0 -17.189934,7.710786 -17.189934,17.188611 0,4.59185 1.788092,8.908581 5.034663,12.155269 3.24669,3.24669 7.563542,5.03479 12.155271,5.03479 h 30.550217 c 0.70663,0 1.27948,-0.57298 1.27948,-1.27948 0,-2.7412 -1.06679,-5.317842 -3.00405,-7.254982 -1.75934,-1.759221 -4.04607,-2.797623 -6.50421,-2.974219 -0.23157,-1.034673 -0.74981,-1.984296 -1.51742,-2.750947 -1.06872,-1.067153 -2.4881,-1.654924 -3.99663,-1.654924 H 95.511348 c -0.714563,0 -1.296078,-0.581394 -1.296078,-1.296078 0,-0.346454 0.134973,-0.672579 0.377732,-0.91594 0.245646,-0.245165 0.571891,-0.380138 0.918466,-0.380138 h 14.642412 c 11.87871,0 21.54263,-9.663924 21.54263,-21.542634 0,-5.753797 -2.24053,-11.163785 -6.30909,-15.233788 -4.06988,-4.068197 -9.47999,-6.308846 -15.23366,-6.308846 H 94.966283 c -2.676845,0 -4.923508,1.870856 -5.505023,4.373391 h -2.88953 c -4.559009,0 -8.268,3.708991 -8.268,8.268 0,1.80325 1.467019,3.27039 3.270389,3.27039 h 28.560631 c 3.11557,0 5.65022,2.534774 5.65022,5.650221 0,1.509485 -0.58777,2.929107 -1.65408,3.996501 -1.06836,1.067153 -2.4875,1.654803 -3.99626,1.654803 z m 0,-13.8606 H 81.573999 c -0.392288,0 -0.711436,-0.319147 -0.711436,-0.711435 0,-0.09311 0.0025,-0.185618 0.007,-0.277645 h 4.652721 c 0.706623,0 1.279477,-0.572974 1.279477,-1.279477 0,-0.706503 -0.572854,-1.279477 -1.279477,-1.279477 h -3.901948 c 0.986073,-1.71447 2.835516,-2.872447 4.951297,-2.872447 h 4.021402 10.104685 c 0.70663,0 1.27948,-0.572974 1.27948,-1.279477 0,-0.706504 -0.57285,-1.279477 -1.27948,-1.279477 h -8.548285 c 0.487563,-1.069319 1.566867,-1.814317 2.81675,-1.814317 h 15.187475 c 5.07039,0 9.83799,1.974552 13.42404,5.559517 3.5852,3.586289 5.55964,8.353773 5.55964,13.424284 0,10.467748 -8.51618,18.98368 -18.98368,18.98368 H 95.511107 c -1.028778,0 -1.996807,0.400348 -2.727851,1.129587 -0.726833,0.728758 -1.127181,1.696666 -1.127181,2.725565 0,2.125645 1.729387,3.855032 3.855032,3.855032 h 16.789343 c 0.8256,0 1.60284,0.322034 2.18844,0.906918 0.26706,0.266577 0.47915,0.573455 0.63084,0.907519 H 95.511348 c -0.709752,0 -1.398932,-0.131244 -2.042039,-0.379416 -1.305942,-0.508615 -2.385847,-1.490478 -3.018127,-2.732663 -0.0037,-0.0072 -0.0076,-0.01431 -0.01119,-0.02153 -0.03152,-0.06243 -0.06099,-0.126071 -0.09022,-0.189708 -0.01035,-0.02262 -0.02105,-0.04499 -0.03104,-0.06785 -0.02081,-0.0474 -0.0403,-0.09539 -0.05991,-0.143393 -0.01624,-0.04006 -0.03296,-0.07988 -0.04836,-0.120177 -0.01155,-0.03007 -0.02189,-0.06063 -0.03284,-0.09082 -0.02105,-0.05846 -0.04222,-0.116928 -0.06123,-0.176115 -0.0037,-0.01119 -0.0067,-0.02262 -0.01035,-0.03392 -0.155424,-0.491413 -0.243842,-1.006043 -0.260082,-1.532341 -2.41e-4,-0.01 -0.0012,-0.01985 -0.0014,-0.02995 l -0.0023,-0.16192 c 0,-0.02887 -3.61e-4,-0.05738 0.0011,-0.08577 3.61e-4,-0.0096 7.22e-4,-0.01925 0.0011,-0.02875 l 1.2e-4,-0.0017 c 0.03633,-1.452705 0.623499,-2.819517 1.6536,-3.848536 1.066913,-1.066913 2.486055,-1.654683 3.995659,-1.654683 h 14.641081 c 4.47925,0 8.71983,-1.713748 11.94066,-4.825346 3.20712,-3.098245 5.06534,-7.252334 5.23436,-11.699347 2.4e-4,-0.0072 7.2e-4,-0.01431 9.6e-4,-0.02165 v -0.0012 -6.02e-4 -2.4e-4 c 2.4e-4,-0.0076 4.8e-4,-0.01492 6e-4,-0.02238 l 0.0115,-0.614235 c 1.2e-4,-0.0081 2.4e-4,-0.01612 2.4e-4,-0.02406 0,-0.214009 -0.004,-0.431265 -0.0124,-0.643348 v -0.0013 0 c 0,-0.0013 -1.2e-4,-0.0026 -2.4e-4,-0.004 -0.16108,-4.336821 -1.94243,-8.41765 -5.01638,-11.491594 -3.06432,-3.064081 -7.12915,-4.843391 -11.4478,-5.013972 -0.016,-6.01e-4 -0.032,-0.0018 -0.048,-0.0024 -6e-4,0 -10e-4,0 -0.002,0 -0.21076,-0.0082 -0.42693,-0.01239 -0.64286,-0.01239 h -1.92307 c -0.70662,0 -1.27948,0.572974 -1.27948,1.279477 0,0.706503 0.57286,1.279477 1.27948,1.279477 h 1.92307 c 0.18321,0 0.36642,0.0036 0.54735,0.01059 1.2e-4,0 2.4e-4,0 3.6e-4,0 0.90258,0.03416 1.79218,0.151454 2.6594,0.346575 0.0237,0.0054 0.0476,0.01035 0.0712,0.01588 0.0651,0.01492 0.12993,0.03104 0.19477,0.04704 0.0527,0.01287 0.10562,0.0255 0.15807,0.03898 0.0356,0.0091 0.071,0.01889 0.10646,0.02839 0.0829,0.02202 0.16577,0.04415 0.24817,0.06773 0.005,0.0013 0.009,0.0026 0.0138,0.004 4.93951,1.414811 8.8322,5.384486 10.1379,10.368864 0.003,0.01155 0.006,0.02286 0.009,0.0344 0.0201,0.07735 0.0387,0.155183 0.0576,0.233136 0.01,0.04018 0.0198,0.08024 0.029,0.120537 0.0115,0.04944 0.022,0.09924 0.033,0.148927 0.0148,0.06749 0.0301,0.134853 0.044,0.20258 0.005,0.02262 0.009,0.04547 0.0135,0.06809 0.14796,0.737059 0.23939,1.489155 0.27211,2.250754 10e-4,0.02574 0.003,0.05137 0.004,0.07711 0.007,0.177799 0.0105,0.357763 0.0106,0.535201 l -0.0112,0.587168 c -4.8e-4,0.0142 -0.002,0.02827 -0.002,0.04247 -0.15229,3.664482 -1.66563,7.11255 -4.26536,9.713608 -2.76057,2.759248 -6.42987,4.278837 -10.33193,4.278837 H 95.511348 c -2.164742,0 -4.208825,0.834259 -5.755842,2.348675 -1.541243,1.509004 -2.417846,3.524817 -2.469333,5.67777 -1.2e-4,0.0024 0,0.0049 -1.2e-4,0.0075 0,0.0013 -1.21e-4,0.0026 -2.41e-4,0.004 0,0.0011 1.2e-4,0.002 1.2e-4,0.0031 -0.0023,0.06183 -0.0031,0.124026 -0.0031,0.187423 0,0.0061 0,0.01227 1.2e-4,0.01829 l 0.0025,0.179122 c 0,0.0046 1.2e-4,0.0091 2.41e-4,0.01359 3.61e-4,0.01323 0.0016,0.02622 0.0019,0.03946 0.05834,2.137915 0.930978,4.138571 2.461514,5.637229 1.543288,1.511048 3.583161,2.343142 5.744173,2.343142 h 21.57079 c 2.05755,0 3.99133,0.800695 5.44535,2.254603 1.148,1.147991 1.88866,2.594921 2.14971,4.165991 H 95.493544 c -3.908203,0 -7.582429,-1.52199 -10.345767,-4.285206 -2.763339,-2.763338 -4.285093,-6.437443 -4.285093,-10.345646 0,-8.066744 6.563394,-14.629658 14.63086,-14.629658 h 14.641086 c 2.19181,0 4.25321,-0.853626 5.80564,-2.404492 1.55003,-1.551468 2.40353,-3.613356 2.40353,-5.805886 0,-4.52701 -3.68264,-8.209777 -8.20917,-8.209777 z"
         style="stroke-width:0.120297" />
      <path
         id="path208"
         d="m 104.48826,49.058605 h -0.38387 c -0.70662,0 -1.27948,0.572974 -1.27948,1.279477 0,0.706503 0.57286,1.279477 1.27948,1.279477 h 0.38387 c 0.70662,0 1.27947,-0.572974 1.27947,-1.279477 0,-0.706503 -0.57285,-1.279477 -1.27947,-1.279477 z"
         style="stroke-width:0.120297" />
      <path
         id="path210"
         d="m 93.443806,52.62312 c -0.706623,0 -1.279477,0.572974 -1.279477,1.279477 0,0.272352 -0.221587,0.493939 -0.493939,0.493939 -0.272231,0 -0.493938,-0.221467 -0.493938,-0.493939 0,-0.706503 -0.572854,-1.279477 -1.279477,-1.279477 -0.706624,0 -1.279477,0.572974 -1.279477,1.279477 0,1.683313 1.369579,3.052893 3.052892,3.052893 1.683434,0 3.052893,-1.36958 3.052893,-3.052893 0,-0.706503 -0.572853,-1.279477 -1.279477,-1.279477 z"
         style="stroke-width:0.120297" />
      <text
         id="text273"
         y="118.07475"
         x="79.705742"
         style="font-size:12.9232px;line-height:1.25;font-family:'Comic Sans MS';-inkscape-font-specification:'Comic Sans MS';letter-spacing:0px;word-spacing:0px;stroke-width:0.40385"
         xml:space="preserve"><tspan
           style="stroke-width:0.40385"
           y="118.07475"
           x="79.705742"
           id="tspan271"
           sodipodi:role="line">Eel Corp</tspan></text>
    </g>
  </g>
</svg>
