<?xml version="1.0" encoding="UTF-8" standalone="no"?>
<svg
   xmlns:dc="http://purl.org/dc/elements/1.1/"
   xmlns:cc="http://creativecommons.org/ns#"
   xmlns:rdf="http://www.w3.org/1999/02/22-rdf-syntax-ns#"
   xmlns:svg="http://www.w3.org/2000/svg"
   xmlns="http://www.w3.org/2000/svg"
   xmlns:sodipodi="http://sodipodi.sourceforge.net/DTD/sodipodi-0.dtd"
   xmlns:inkscape="http://www.inkscape.org/namespaces/inkscape"
   sodipodi:docname="logo.svg"
   inkscape:version="1.0 (4035a4fb49, 2020-05-01)"
   id="svg8"
   version="1.1"
   viewBox="0 0 57.393021 81.05574"
   height="81.05574mm"
   width="57.393021mm">
  <defs
     id="defs2" />
  <sodipodi:namedview
     inkscape:window-maximized="1"
     inkscape:window-y="18"
     inkscape:window-x="0"
     inkscape:window-height="1041"
     inkscape:window-width="1916"
     fit-margin-left="2"
     fit-margin-bottom="2"
     fit-margin-right="2"
     fit-margin-top="2"
     showgrid="false"
     inkscape:document-rotation="0"
     inkscape:current-layer="layer1"
     inkscape:document-units="mm"
     inkscape:cy="247.9423"
     inkscape:cx="84.077431"
     inkscape:zoom="1.2077564"
     inkscape:pageshadow="2"
     inkscape:pageopacity="0.0"
     borderopacity="1.0"
     bordercolor="#666666"
     pagecolor="#ffffff"
     id="base" />
  <metadata
     id="metadata5">
    <rdf:RDF>
      <cc:Work
         rdf:about="">
        <dc:format>image/svg+xml</dc:format>
        <dc:type
           rdf:resource="http://purl.org/dc/dcmitype/StillImage" />
        <dc:title></dc:title>
      </cc:Work>
    </rdf:RDF>
  </metadata>
  <g
     transform="translate(-76.303489,-42.685214)"
     id="layer1"
     inkscape:groupmode="layer"
     inkscape:label="Layer 1">
    <g
       id="g323">
      <g
         id="g269"
         transform="matrix(0.12029682,0,0,0.12029682,74.204014,44.685214)">
        <path
           id="path202"
           d="m 430.931,179.079 c 0,-1.659 -0.032,-3.308 -0.096,-4.956 C 428.293,105.116 372.805,49.628 303.798,47.086 302.149,47.022 300.501,46.99 298.842,46.99 H 136.238 c 0,-20.081 16.273,-36.354 36.354,-36.354 h 126.25 c 46.522,0 88.63,18.858 119.113,49.33 30.472,30.483 49.33,72.591 49.33,119.113 0,93.034 -75.41,168.443 -168.443,168.443 H 177.123 c -5.914,0 -11.264,2.393 -15.146,6.265 -3.872,3.882 -6.265,9.232 -6.265,15.146 0,11.827 9.583,21.41 21.41,21.41 h 139.566 c 10.04,0 19.124,4.074 25.707,10.647 6.584,6.573 10.647,15.667 10.647,25.707 H 177.123 c -15.954,0 -30.387,-6.467 -40.842,-16.922 -10.126,-10.126 -16.518,-23.995 -16.901,-39.353 l -0.021,-1.489 c 0,-0.447 0,-0.883 0.021,-1.319 0.383,-15.316 6.754,-29.153 16.858,-39.247 10.423,-10.423 24.825,-16.869 40.736,-16.869 h 121.708 c 71.379,0 129.558,-56.563 132.153,-127.314 z"
           style="fill:#e6f6ff" />
        <path
           id="path204"
           d="m 430.931,179.079 -0.096,5.105 c -1.308,34.45 -15.805,65.508 -38.588,88.301 -23.91,23.899 -56.924,38.683 -93.406,38.683 H 177.123 c -31.451,0 -57.052,25.154 -57.743,56.446 -0.021,0.436 -0.021,0.872 -0.021,1.319 l 0.021,1.489 c 0.691,31.217 26.207,56.297 57.594,56.297 h 179.313 c 20.613,0 39.279,8.349 52.787,21.857 13.508,13.508 21.857,32.174 21.857,52.787 H 176.974 c -36.524,0 -69.592,-14.805 -93.523,-38.737 -23.931,-23.931 -38.737,-56.999 -38.737,-93.523 0,-73.038 59.211,-132.249 132.259,-132.249 h 121.708 c 15.901,0 30.302,-6.445 40.736,-16.869 10.423,-10.434 16.869,-24.835 16.869,-40.747 0,-31.812 -25.792,-57.605 -57.605,-57.605 H 61.264 c -9.136,0 -16.55,-7.413 -16.55,-16.55 0,-32.089 26.005,-58.094 58.094,-58.094 h 33.429 162.604 c 1.659,0 3.308,0.032 4.956,0.096 34.482,1.308 65.582,15.826 88.396,38.641 22.814,22.814 37.333,53.914 38.641,88.396 0.065,1.65 0.097,3.298 0.097,4.957 z"
           style="fill:#97c2f7" />
        <path
           id="path206"
           d="M 298.683,226.218 H 176.974 c -78.793,0 -142.896,64.098 -142.896,142.885 0,38.171 14.864,74.055 41.852,101.044 C 102.919,497.136 138.804,512 176.974,512 h 253.957 c 5.874,0 10.636,-4.763 10.636,-10.636 0,-22.787 -8.868,-44.206 -24.972,-60.309 -14.625,-14.624 -33.634,-23.256 -54.068,-24.724 -1.925,-8.601 -6.233,-16.495 -12.614,-22.868 -8.884,-8.871 -20.683,-13.757 -33.223,-13.757 H 177.123 c -5.94,0 -10.774,-4.833 -10.774,-10.774 0,-2.88 1.122,-5.591 3.14,-7.614 2.042,-2.038 4.754,-3.16 7.635,-3.16 h 121.719 c 98.745,0 179.079,-80.334 179.079,-179.079 0,-47.83 -18.625,-92.802 -52.446,-126.635 C 391.644,18.626 346.671,0 298.842,0 H 172.592 C 150.34,0 131.664,15.552 126.83,36.355 h -24.02 c -37.898,0 -68.73,30.832 -68.73,68.73 0,14.99 12.195,27.186 27.186,27.186 h 237.418 c 25.899,0 46.969,21.071 46.969,46.969 0,12.548 -4.886,24.349 -13.75,33.222 -8.881,8.871 -20.678,13.756 -33.22,13.756 z m 0,-115.22 H 61.265 c -3.261,0 -5.914,-2.653 -5.914,-5.914 0,-0.774 0.021,-1.543 0.058,-2.308 h 38.677 c 5.874,0 10.636,-4.763 10.636,-10.636 0,-5.873 -4.762,-10.636 -10.636,-10.636 H 61.65 C 69.847,67.252 85.221,57.626 102.809,57.626 h 33.429 83.998 c 5.874,0 10.636,-4.763 10.636,-10.636 0,-5.873 -4.762,-10.636 -10.636,-10.636 h -71.06 c 4.053,-8.889 13.025,-15.082 23.415,-15.082 h 126.25 c 42.149,0 81.781,16.414 111.591,46.215 29.803,29.812 46.216,69.443 46.216,111.593 0,87.016 -70.793,157.807 -157.807,157.807 h -121.72 c -8.552,0 -16.599,3.328 -22.676,9.39 -6.042,6.058 -9.37,14.104 -9.37,22.657 0,17.67 14.376,32.046 32.046,32.046 h 139.566 c 6.863,0 13.324,2.677 18.192,7.539 2.22,2.216 3.983,4.767 5.244,7.544 h -163 c -5.9,0 -11.629,-1.091 -16.975,-3.154 -10.856,-4.228 -19.833,-12.39 -25.089,-22.716 -0.031,-0.06 -0.063,-0.119 -0.093,-0.179 -0.262,-0.519 -0.507,-1.048 -0.75,-1.577 -0.086,-0.188 -0.175,-0.374 -0.258,-0.564 -0.173,-0.394 -0.335,-0.793 -0.498,-1.192 -0.135,-0.333 -0.274,-0.664 -0.402,-0.999 -0.096,-0.25 -0.182,-0.504 -0.273,-0.755 -0.175,-0.486 -0.351,-0.972 -0.509,-1.464 -0.031,-0.093 -0.056,-0.188 -0.086,-0.282 -1.292,-4.085 -2.027,-8.363 -2.162,-12.738 -0.002,-0.083 -0.01,-0.165 -0.012,-0.249 l -0.019,-1.346 c 0,-0.24 -0.003,-0.477 0.009,-0.713 0.003,-0.08 0.006,-0.16 0.009,-0.239 l 0.001,-0.014 c 0.302,-12.076 5.183,-23.438 13.746,-31.992 8.869,-8.869 20.666,-13.755 33.215,-13.755 h 121.708 c 37.235,0 72.486,-14.246 99.26,-40.112 26.66,-25.755 42.107,-60.287 43.512,-97.254 0.002,-0.06 0.006,-0.119 0.008,-0.18 v -0.01 -0.005 -0.002 c 0.002,-0.063 0.004,-0.124 0.005,-0.186 l 0.096,-5.106 c 0.001,-0.067 0.002,-0.134 0.002,-0.2 0,-1.779 -0.035,-3.585 -0.103,-5.348 v -0.011 0 c 0,-0.011 -10e-4,-0.022 -0.002,-0.033 -1.339,-36.051 -16.147,-69.974 -41.7,-95.527 C 374.29,52.69 340.5,37.899 304.6,36.481 c -0.133,-0.005 -0.266,-0.015 -0.399,-0.02 -0.005,0 -0.011,0 -0.016,0 -1.752,-0.068 -3.549,-0.103 -5.344,-0.103 h -15.986 c -5.874,0 -10.636,4.763 -10.636,10.636 0,5.873 4.762,10.636 10.636,10.636 h 15.986 c 1.523,0 3.046,0.03 4.55,0.088 10e-4,0 0.002,0 0.003,0 7.503,0.284 14.898,1.259 22.107,2.881 0.197,0.045 0.396,0.086 0.592,0.132 0.541,0.124 1.08,0.258 1.619,0.391 0.438,0.107 0.878,0.212 1.314,0.324 0.296,0.076 0.59,0.157 0.885,0.236 0.689,0.183 1.378,0.367 2.063,0.563 0.038,0.011 0.077,0.022 0.115,0.033 41.061,11.761 73.42,44.76 84.274,86.194 0.024,0.096 0.051,0.19 0.077,0.286 0.167,0.643 0.322,1.29 0.479,1.938 0.081,0.334 0.165,0.667 0.241,1.002 0.096,0.411 0.183,0.825 0.274,1.238 0.123,0.561 0.25,1.121 0.366,1.684 0.039,0.188 0.073,0.378 0.112,0.566 1.23,6.127 1.99,12.379 2.262,18.71 0.009,0.214 0.023,0.427 0.032,0.641 0.057,1.478 0.087,2.974 0.088,4.449 l -0.093,4.881 c -0.004,0.118 -0.013,0.235 -0.017,0.353 -1.266,30.462 -13.846,59.125 -35.457,80.747 -22.948,22.937 -53.45,35.569 -85.887,35.569 H 177.123 c -17.995,0 -34.987,6.935 -47.847,19.524 -12.812,12.544 -20.099,29.301 -20.527,47.198 -10e-4,0.02 0,0.041 -10e-4,0.062 0,0.011 -0.001,0.022 -0.002,0.033 0,0.009 0.001,0.017 0.001,0.026 -0.019,0.514 -0.026,1.031 -0.026,1.558 0,0.051 0,0.102 10e-4,0.152 l 0.021,1.489 c 0,0.038 0.001,0.076 0.002,0.113 0.003,0.11 0.013,0.218 0.016,0.328 0.485,17.772 7.739,34.403 20.462,46.861 12.829,12.561 29.786,19.478 47.75,19.478 h 179.313 c 17.104,0 33.179,6.656 45.266,18.742 9.543,9.543 15.7,21.571 17.87,34.631 H 176.975 c -32.488,0 -63.031,-12.652 -86.002,-35.622 -22.971,-22.971 -35.621,-53.513 -35.621,-86.001 0,-67.057 54.56,-121.613 121.623,-121.613 h 121.708 c 18.22,0 35.356,-7.096 48.261,-19.988 12.885,-12.897 19.98,-30.037 19.98,-48.263 0,-37.632 -30.613,-68.246 -68.241,-68.246 z" />
        <path
           id="path208"
           d="m 251.746,36.355 h -3.191 c -5.874,0 -10.636,4.763 -10.636,10.636 0,5.873 4.762,10.636 10.636,10.636 h 3.191 c 5.874,0 10.636,-4.763 10.636,-10.636 0,-5.873 -4.762,-10.636 -10.636,-10.636 z" />
        <path
           id="path210"
           d="m 159.936,65.986 c -5.874,0 -10.636,4.763 -10.636,10.636 0,2.264 -1.842,4.106 -4.106,4.106 -2.263,0 -4.106,-1.841 -4.106,-4.106 0,-5.873 -4.762,-10.636 -10.636,-10.636 -5.874,0 -10.636,4.763 -10.636,10.636 0,13.993 11.385,25.378 25.378,25.378 13.994,0 25.378,-11.385 25.378,-25.378 0,-5.873 -4.762,-10.636 -10.636,-10.636 z" />
        <g
           id="g212">
</g>
        <g
           id="g214">
</g>
        <g
           id="g216">
</g>
        <g
           id="g218">
</g>
        <g
           id="g220">
</g>
        <g
           id="g222">
</g>
        <g
           id="g224">
</g>
        <g
           id="g226">
</g>
        <g
           id="g228">
</g>
        <g
           id="g230">
</g>
        <g
           id="g232">
</g>
        <g
           id="g234">
</g>
        <g
           id="g236">
</g>
        <g
           id="g238">
</g>
        <g
           id="g240">
</g>
      </g>
      <text
         xml:space="preserve"
         style="font-size:12.9232px;line-height:1.25;font-family:'Comic Sans MS';-inkscape-font-specification:'Comic Sans MS';letter-spacing:0px;word-spacing:0px;stroke-width:0.40385"
         x="79.705742"
         y="118.07475"
         id="text273"><tspan
           sodipodi:role="line"
           id="tspan271"
           x="79.705742"
           y="118.07475"
           style="stroke-width:0.40385">Eel Corp</tspan></text>
    </g>
  </g>
</svg>
